<svg id="cut-lines" xmlns="http://www.w3.org/2000/svg" viewBox="0 0 234 378"><defs><style>.cls-1,.cls-2{fill:none;stroke:red;}.cls-2{stroke-linejoin:round;}</style></defs><title>worklate-cutonly</title><path class="cls-1" d="M24.73,66.36V69.1l-10.16,10L24.73,89v33.22A12,12,0,0,0,36.79,134H52.07l10.17,10L72.4,134h1"/><path class="cls-1" d="M74.13,134H87.68a12,12,0,0,0,12.06-11.78V89l10.16-10-10.16-10V66.36"/><path class="cls-1" d="M99.74,65.64V35.88A12,12,0,0,0,87.68,24.09H74.13"/><path class="cls-1" d="M73.41,24.09h-1l-10.17-10-10.17,10H36.79A12,12,0,0,0,24.73,35.88V65.64"/><path class="cls-2" d="M57.31,105.51c-1.55-1.06.5-4,0-5.75s-3.75-1.77-5.58-2c-2.23-.23-6.09.49-11.29,2.59V45.73c0-6.24.1-7.34,6.34-7.34h29.7c6.24,0,6.34,1.1,6.34,7.34v59.79c-2.67,0-1.33.37-5.09-.07-6.3-.73-7.29,5.5-8.79,5.44s-.53-3.28-2.58-3.33-5.9,4-5.9,4S59.69,107.14,57.31,105.51Z"/><path class="cls-1" d="M133.73,66.36V69.1l-10.16,10,10.16,10v33.22A12,12,0,0,0,145.79,134h15.28l10.17,10,10.17-10h1"/><path class="cls-1" d="M183.13,134h13.55a12,12,0,0,0,12.06-11.78V89l10.16-10-10.16-10V66.36"/><path class="cls-1" d="M208.74,65.64V35.88a12,12,0,0,0-12.06-11.78H183.13"/><path class="cls-1" d="M182.41,24.09h-1l-10.17-10-10.17,10H145.79a12,12,0,0,0-12.06,11.78V65.64"/><path class="cls-2" d="M166.31,105.51c-1.55-1.06.5-4,0-5.75s-3.75-1.77-5.58-2c-2.23-.23-6.09.49-11.29,2.59V45.73c0-6.24.1-7.34,6.34-7.34h29.7c6.24,0,6.34,1.1,6.34,7.34v59.79c-2.67,0-1.33.37-5.09-.07-6.3-.73-7.29,5.5-8.79,5.44s-.53-3.28-2.58-3.33-5.9,4-5.9,4S168.69,107.14,166.31,105.51Z"/><path class="cls-1" d="M133.73,209.36v2.74l-10.16,10,10.16,10v33.22A12,12,0,0,0,145.79,277h15.28l10.17,10,10.17-10h1"/><path class="cls-1" d="M183.13,277h13.55a12,12,0,0,0,12.06-11.78V232l10.16-10-10.16-10v-2.74"/><path class="cls-1" d="M208.74,208.64V178.88a12,12,0,0,0-12.06-11.78H183.13"/><path class="cls-1" d="M182.41,167.09h-1l-10.17-10-10.17,10H145.79a12,12,0,0,0-12.06,11.78v29.76"/><path class="cls-2" d="M166.31,248.51c-1.55-1.06.5-4,0-5.75s-3.75-1.77-5.58-2c-2.23-.23-6.09.49-11.29,2.59V188.73c0-6.24.1-7.34,6.34-7.34h29.7c6.24,0,6.34,1.1,6.34,7.34v59.79c-2.67,0-1.33.37-5.09-.07-6.3-.73-7.29,5.5-8.79,5.44s-.53-3.28-2.58-3.33-5.9,4-5.9,4S168.69,250.14,166.31,248.51Z"/><path class="cls-1" d="M24.73,209.36v2.74l-10.16,10,10.16,10v33.22A12,12,0,0,0,36.79,277H52.07l10.17,10L72.4,277h1"/><path class="cls-1" d="M74.13,277H87.68a12,12,0,0,0,12.06-11.78V232l10.16-10-10.16-10v-2.74"/><path class="cls-1" d="M99.74,208.64V178.88a12,12,0,0,0-12.06-11.78H74.13"/><path class="cls-1" d="M73.41,167.09h-1l-10.17-10-10.17,10H36.79a12,12,0,0,0-12.06,11.78v29.76"/><path class="cls-2" d="M57.31,248.51c-1.55-1.06.5-4,0-5.75s-3.75-1.77-5.58-2c-2.23-.23-6.09.49-11.29,2.59V188.73c0-6.24.1-7.34,6.34-7.34h29.7c6.24,0,6.34,1.1,6.34,7.34v59.79c-2.67,0-1.33.37-5.09-.07-6.3-.73-7.29,5.5-8.79,5.44s-.53-3.28-2.58-3.33-5.9,4-5.9,4S59.69,250.14,57.31,248.51Z"/></svg>